
<svg version="1.0" xmlns="http://www.w3.org/2000/svg"
 width="300.000000pt" height="300.000000pt" viewBox="0 0 300.000000 300.000000"
 preserveAspectRatio="xMidYMid meet">

<g transform="translate(0.000000,300.000000) scale(0.100000,-0.100000)"
fill="#000000" stroke="none">
<path d="M1416 2717 c-21 -16 -18 -61 4 -64 68 -9 90 -15 90 -28 0 -18 -61
-21 -90 -5 -14 7 -19 5 -23 -10 -4 -16 2 -21 29 -26 39 -7 91 1 111 17 33 28
3 69 -51 69 -31 0 -56 9 -56 22 0 5 23 8 52 7 30 -2 53 1 55 8 8 23 -92 31
-121 10z"/>
<path d="M1610 2687 c-36 -18 -41 -78 -8 -101 48 -34 118 -8 118 43 0 50 -62
83 -110 58z m70 -32 c22 -26 8 -50 -30 -50 -25 0 -36 5 -38 18 -5 23 15 47 38
47 10 0 23 -7 30 -15z"/>
<path d="M1772 2644 c-53 -37 -8 -114 68 -114 32 0 37 3 33 18 -3 14 -12 17
-37 14 -36 -4 -60 16 -54 45 4 24 43 29 73 9 19 -13 25 -13 34 -2 9 11 3 17
-29 30 -50 20 -60 20 -88 0z"/>
<path d="M1003 2593 c-18 -9 -33 -20 -33 -24 0 -4 10 -29 23 -56 16 -35 27
-47 39 -45 15 3 16 7 7 24 -17 31 4 45 35 25 14 -9 33 -14 42 -10 15 6 15 7
-2 20 -12 9 -19 26 -19 46 0 28 -3 32 -30 34 -16 1 -45 -5 -62 -14z m65 -21
c2 -6 -8 -17 -23 -24 -22 -10 -28 -9 -35 2 -7 11 -3 18 13 27 25 14 39 12 45
-5z"/>
<path d="M1927 2558 c-22 -47 -23 -54 -9 -65 13 -10 19 -4 42 45 18 39 23 59
16 64 -19 13 -24 9 -49 -44z"/>
<path d="M1242 2573 c4 -21 33 -25 33 -3 0 8 -8 16 -18 18 -14 3 -18 -1 -15
-15z"/>
<path d="M875 2518 c-22 -16 -46 -33 -53 -37 -10 -6 -5 -20 21 -58 l35 -51 51
34 c28 19 51 39 51 44 0 15 -7 12 -48 -15 -25 -17 -39 -22 -47 -14 -7 7 -2 17
18 33 35 28 23 42 -14 16 -18 -14 -30 -17 -34 -10 -8 14 -5 17 40 44 20 12 31
26 27 32 -5 7 -21 1 -47 -18z"/>
<path d="M2022 2510 c-31 -23 -48 -41 -42 -45 6 -4 18 -4 26 -1 18 7 64 -21
64 -39 0 -7 6 -18 14 -24 12 -10 15 -7 20 16 14 71 11 106 -9 118 -17 11 -27
7 -73 -25z m58 -25 c0 -27 -7 -30 -30 -15 -13 9 -12 12 4 25 26 19 26 19 26
-10z"/>
<path d="M2168 2415 c-21 -24 -38 -45 -38 -47 0 -13 92 -78 102 -72 7 5 -1 18
-25 38 l-37 31 34 37 c24 26 30 40 23 47 -16 16 -18 15 -59 -34z"/>
<path d="M727 2400 c-42 -36 -49 -76 -19 -103 30 -28 66 -21 101 18 36 42 36
40 13 65 -18 20 -19 20 -42 -5 -24 -26 -21 -47 3 -27 21 18 29 1 10 -20 -19
-21 -44 -23 -61 -6 -19 19 -14 45 14 66 15 10 25 25 22 32 -3 9 -16 3 -41 -20z"/>
<path d="M2358 2249 c-32 -22 -58 -43 -58 -48 0 -21 16 -18 57 10 24 17 46 29
49 27 2 -3 -10 -24 -27 -47 -17 -24 -29 -44 -27 -46 2 -2 23 1 47 6 64 14 69
7 17 -27 -39 -25 -44 -33 -33 -45 10 -14 20 -10 73 26 61 41 61 42 43 64 -15
18 -24 21 -54 15 -40 -7 -42 -3 -16 35 18 25 18 28 3 48 l-17 21 -57 -39z"/>
<path d="M591 2257 c-16 -16 -14 -26 17 -84 28 -55 47 -64 47 -22 0 33 28 71
47 64 9 -4 18 1 21 9 4 9 3 16 -1 16 -4 1 -32 7 -64 14 -40 10 -59 11 -67 3z
m63 -36 c3 -4 0 -16 -7 -25 -12 -16 -14 -16 -25 8 -10 23 -9 26 8 26 10 0 21
-4 24 -9z"/>
<path d="M506 2133 c-8 -21 -9 -19 26 -34 27 -11 29 -14 12 -20 -10 -4 -31 -8
-45 -8 -17 -1 -29 -9 -36 -24 -10 -21 -7 -25 44 -52 44 -23 56 -26 63 -15 6
10 -3 19 -33 33 l-42 20 50 14 c73 21 75 22 75 32 0 5 -24 23 -54 39 -45 24
-56 27 -60 15z"/>
<path d="M2506 2062 c-3 -5 -23 -14 -45 -22 -23 -7 -41 -16 -41 -20 0 -24 47
-116 57 -113 9 3 7 15 -8 44 -19 38 -19 59 2 59 6 0 15 -14 21 -31 6 -19 14
-27 20 -21 5 5 4 19 -3 36 -12 26 -8 43 9 33 4 -4 14 -24 22 -46 8 -24 17 -38
25 -35 10 4 6 20 -13 65 -24 57 -35 68 -46 51z"/>
<path d="M478 1927 c-44 -7 -69 -15 -69 -24 -1 -7 -2 -16 -3 -20 -2 -13 94
-96 101 -89 4 4 2 15 -4 25 -15 24 -4 73 17 78 10 3 20 13 23 24 3 10 4 18 4
17 -1 0 -32 -6 -69 -11z m6 -49 c-9 -33 -12 -34 -32 -15 -15 16 -15 19 -2 27
27 17 42 12 34 -12z"/>
<path d="M2527 1883 c-47 -14 -48 -15 -41 -46 17 -80 41 -99 91 -75 32 15 37
33 28 94 -7 48 -8 49 -78 27z m58 -42 c8 -28 -5 -51 -29 -51 -45 0 -65 55 -23
63 41 8 46 7 52 -12z"/>
<path d="M350 1755 c0 -7 -2 -20 -5 -27 -3 -8 9 -22 31 -35 l37 -21 -37 -12
c-25 -8 -38 -19 -42 -36 -4 -14 -5 -26 -3 -28 2 -2 37 -6 77 -9 56 -5 72 -3
72 7 0 9 -21 17 -57 23 l-58 9 60 18 59 19 -46 23 c-77 39 -74 51 10 35 37 -7
42 -6 42 10 0 13 -10 20 -32 23 -97 15 -108 15 -108 1z"/>
<path d="M2558 1713 c-39 -3 -48 -8 -48 -23 0 -18 5 -19 63 -13 34 3 63 7 65
8 7 6 -12 35 -22 33 -6 -1 -32 -3 -58 -5z"/>
<path d="M2520 1616 c0 -8 7 -16 15 -20 9 -3 15 -19 15 -41 0 -24 -4 -35 -15
-35 -8 0 -15 -9 -15 -20 0 -25 -1 -25 65 7 43 21 55 32 55 50 0 19 -11 28 -56
48 -66 29 -64 29 -64 11z m79 -45 c17 -11 6 -31 -19 -31 -13 0 -17 5 -13 20 6
22 11 24 32 11z"/>
<path d="M360 1431 c0 -12 25 -38 42 -44 10 -3 9 -9 -4 -24 -10 -11 -18 -30
-18 -43 0 -23 2 -22 38 13 21 20 48 37 60 37 24 0 27 7 13 29 -5 8 -16 11 -26
8 -9 -4 -34 2 -55 13 -44 23 -50 24 -50 11z"/>
<path d="M2500 1345 c0 -8 17 -19 43 -25 72 -19 74 -23 17 -32 -30 -4 -59 -9
-63 -11 -5 -1 12 -18 37 -36 25 -19 44 -37 41 -39 -2 -2 -25 3 -51 12 -25 8
-50 13 -55 10 -24 -14 -3 -32 61 -50 l69 -21 6 29 c6 24 2 33 -21 51 l-28 22
39 10 c23 7 41 19 46 32 7 19 1 23 -61 42 -81 25 -80 25 -80 6z"/>
<path d="M404 1273 c-8 -3 -6 -23 9 -69 21 -63 45 -82 39 -31 -2 24 2 28 41
39 35 9 43 15 39 30 -5 22 -4 22 -49 3 -47 -20 -50 -19 -60 9 -4 12 -13 21
-19 19z"/>
<path d="M2437 1146 c-3 -7 -1 -18 4 -23 13 -13 -22 -75 -38 -68 -7 2 -17 -5
-23 -15 -10 -19 -7 -20 59 -20 95 0 103 15 49 87 -22 29 -42 53 -43 53 -2 0
-5 -6 -8 -14z m41 -68 c19 -19 14 -28 -13 -28 -27 0 -28 1 -19 24 7 19 16 20
32 4z"/>
<path d="M513 1123 c-48 -22 -63 -40 -48 -55 3 -3 26 5 50 18 25 12 50 24 57
26 7 3 8 9 2 19 -8 14 -15 13 -61 -8z"/>
<path d="M553 1042 c-53 -34 -56 -38 -48 -52 5 -8 14 -7 31 4 13 9 26 16 29
16 7 0 -5 -52 -16 -65 -4 -6 0 -20 9 -31 l17 -21 53 32 c44 27 50 34 37 45
-12 10 -20 8 -42 -10 -34 -27 -41 -12 -20 47 13 38 12 64 -1 62 -4 0 -26 -12
-49 -27z"/>
<path d="M2346 984 c-6 -15 28 -53 47 -54 5 0 5 -4 2 -10 -3 -5 -28 -10 -54
-10 -72 0 -78 -16 -23 -60 35 -28 50 -35 60 -27 10 8 7 15 -15 33 l-28 23 35
2 c19 1 38 1 41 1 8 -1 44 37 38 41 -2 1 -25 19 -50 40 -39 30 -48 34 -53 21z"/>
<path d="M645 869 c-28 -25 -33 -34 -24 -46 10 -12 17 -9 45 18 34 33 59 34
71 2 4 -11 -4 -25 -26 -44 -24 -20 -31 -31 -24 -43 7 -13 14 -9 46 20 44 42
46 59 10 96 -34 36 -54 35 -98 -3z"/>
<path d="M2236 851 c-4 -5 -4 -16 -1 -23 7 -18 -28 -50 -57 -53 -36 -4 -38 -5
-38 -13 0 -4 27 -18 61 -31 53 -20 63 -22 76 -9 12 13 12 22 -4 76 -17 60 -26
72 -37 53z m19 -82 c9 -26 5 -29 -24 -18 -19 8 -21 12 -11 24 17 21 27 19 35
-6z"/>
<path d="M786 742 c-32 -43 -34 -48 -18 -60 9 -7 22 -10 29 -7 48 19 46 20 40
-12 -5 -23 -1 -35 13 -48 11 -10 20 -14 20 -8 0 5 16 29 36 52 28 33 34 45 25
54 -10 9 -14 8 -21 -4 -5 -9 -19 -27 -30 -40 l-21 -24 6 30 c3 17 8 38 11 48
5 17 3 17 -35 -3 -48 -24 -50 -20 -16 24 21 27 23 35 11 39 -10 4 -27 -10 -50
-41z"/>
<path d="M2062 707 c-12 -7 -28 -22 -36 -33 -12 -17 -12 -22 0 -39 12 -16 17
-17 39 -5 30 16 33 34 5 25 -14 -4 -20 -2 -20 9 0 17 41 31 65 22 8 -3 15 -17
15 -32 0 -19 -7 -28 -30 -37 -16 -6 -30 -17 -30 -24 0 -21 26 -15 59 13 70 59
13 145 -67 101z"/>
<path d="M955 630 c-14 -27 -25 -54 -25 -59 0 -17 33 -21 56 -6 31 20 32 20
36 -17 5 -53 31 -47 63 13 20 40 24 54 14 60 -9 5 -19 -5 -33 -34 l-20 -42 -5
43 -6 44 -28 -22 c-37 -29 -43 -21 -17 23 18 30 18 35 5 41 -11 4 -22 -9 -40
-44z"/>
<path d="M1913 627 c-29 -12 -53 -28 -53 -34 0 -17 4 -16 49 7 34 17 40 18 45
4 9 -22 9 -22 -23 -29 -20 -4 -28 -11 -24 -20 4 -12 9 -12 33 0 26 13 40 11
40 -5 0 -4 -21 -15 -46 -25 -27 -10 -42 -21 -37 -26 6 -6 32 1 65 16 l55 25
-21 55 c-11 30 -23 54 -26 54 -3 0 -29 -10 -57 -22z"/>
<path d="M1155 578 c-43 -25 -47 -67 -9 -97 68 -54 157 10 102 73 -27 30 -65
40 -93 24z m65 -33 c20 -24 8 -50 -24 -50 -36 0 -56 26 -37 49 17 20 45 21 61
1z"/>
<path d="M1798 582 c-13 -5 -15 -11 -8 -22 15 -23 12 -30 -10 -30 -11 0 -25 8
-31 19 -8 11 -19 16 -31 13 -18 -4 -18 -6 3 -28 13 -14 17 -24 10 -24 -8 0
-11 -11 -9 -27 4 -33 33 -41 91 -23 28 8 37 15 33 28 -3 9 -10 36 -16 60 -6
23 -12 42 -13 41 -1 0 -10 -3 -19 -7z m12 -87 c0 -15 -46 -32 -57 -22 -3 4 -3
13 0 22 8 20 57 20 57 0z"/>
<path d="M1317 543 c-11 -3 -16 -11 -13 -20 3 -8 6 -16 6 -18 0 -2 13 0 29 5
37 10 75 -8 79 -38 5 -31 -35 -48 -79 -33 -25 9 -34 8 -40 -1 -12 -20 5 -30
60 -36 43 -4 53 -1 75 21 32 32 33 67 3 95 -22 21 -87 35 -120 25z"/>
<path d="M1545 530 c-8 -14 3 -30 21 -30 8 0 14 9 14 20 0 21 -24 28 -35 10z"/>
</g>
</svg>
